<svg width="171" height="49" viewBox="0 0 171 49" fill="none" xmlns="http://www.w3.org/2000/svg">
<path d="M0.472656 10.7381C0.472656 9.71893 0.670455 8.83319 1.06605 8.08091C1.47329 7.3165 2.0376 6.66736 2.75898 6.13348C3.492 5.59961 4.36465 5.1628 5.37691 4.82307C6.40081 4.47119 7.52361 4.19819 8.74532 4.00405C9.96702 3.80992 11.276 3.67645 12.6722 3.60365C14.0684 3.53085 15.5112 3.49445 17.0005 3.49445C19.0251 3.49445 21.1427 3.57938 23.3534 3.74925C25.5757 3.91912 27.8911 4.22852 30.2996 4.67746C30.8581 4.7988 31.2479 5.0172 31.4689 5.33267C31.7017 5.64814 31.818 6.00001 31.818 6.38829C31.818 6.63096 31.7656 6.86756 31.6609 7.0981C31.5562 7.32863 31.4166 7.54097 31.2421 7.73511C31.0675 7.92924 30.8639 8.08698 30.6312 8.20831C30.3985 8.31751 30.1542 8.37211 29.8982 8.37211C29.0023 8.37211 28.0656 8.32358 27.0883 8.22651C26.1226 8.12944 25.1103 8.02024 24.0515 7.89891C23.0043 7.77757 21.9222 7.65624 20.8052 7.5349C19.6883 7.41357 18.5364 7.32257 17.3496 7.2619C17.1401 8.62085 16.8725 10.0829 16.5467 11.6482C16.221 13.2134 15.8603 14.815 15.4647 16.453C15.0807 18.0789 14.6735 19.7048 14.243 21.3307C13.8241 22.9444 13.4169 24.4915 13.0213 25.9718C12.6257 27.4399 12.2533 28.7989 11.9043 30.0486C11.5669 31.2984 11.2876 32.3722 11.0665 33.2701C10.9735 33.6826 10.828 34.0648 10.6302 34.4167C10.4441 34.7564 10.2288 35.0537 9.98447 35.3085C9.75176 35.5633 9.50742 35.7574 9.25145 35.8909C8.99547 36.0365 8.75695 36.1093 8.53588 36.1093C7.87267 36.1093 7.32582 35.9455 6.89531 35.6179C6.46481 35.2903 6.24956 34.7625 6.24956 34.0345C6.24956 33.8039 6.28446 33.5491 6.35427 33.2701C6.50553 32.1659 6.70333 31.08 6.94767 30.0122C7.20365 28.9445 7.50034 27.8342 7.83777 26.6816C8.17519 25.5167 8.55915 24.2852 8.98966 22.9869C9.42016 21.6886 9.8972 20.2629 10.4208 18.7099C10.9444 17.1446 11.5087 15.4217 12.1137 13.541C12.7304 11.6603 13.3936 9.56726 14.1033 7.2619C13.4867 7.31043 12.8584 7.36503 12.2184 7.4257C11.5901 7.48637 10.9735 7.5713 10.3684 7.6805C9.77503 7.77757 9.21654 7.90497 8.69296 8.06271C8.18101 8.22044 7.72723 8.42065 7.33163 8.66332C6.94767 8.90599 6.63934 9.19719 6.40663 9.53693C6.18556 9.87667 6.07503 10.2771 6.07503 10.7381C6.07503 10.7624 6.05757 10.8959 6.02267 11.1386C5.9994 11.3812 5.9005 11.6482 5.72597 11.9394C5.55144 12.2184 5.27219 12.4793 4.88823 12.722C4.5159 12.9525 3.98068 13.0678 3.28257 13.0678C2.58445 13.0678 2.04341 12.9464 1.65945 12.7038C1.27549 12.4611 0.996242 12.1942 0.821714 11.903C0.612279 11.5632 0.495927 11.175 0.472656 10.7381Z" fill="white"/>
<path d="M15.9068 31.1406C15.9068 30.6067 15.9359 29.9879 15.9941 29.2842C16.0522 28.5683 16.1279 27.816 16.221 27.0274C16.3257 26.2387 16.442 25.4379 16.57 24.6249C16.7096 23.7999 16.8842 22.9262 17.0936 22.0041C17.303 21.0698 17.4834 20.2933 17.6346 19.6745C17.7859 19.0557 17.9372 18.5461 18.0884 18.1456C18.1815 17.8787 18.2746 17.6664 18.3677 17.5086C18.4607 17.3509 18.5655 17.2296 18.6818 17.1446C18.8098 17.0476 18.9611 16.9869 19.1356 16.9626C19.3218 16.9262 19.5486 16.908 19.8162 16.908C20.1188 16.908 20.3515 16.9262 20.5144 16.9626C20.6889 16.9869 20.8169 17.0597 20.8983 17.181C20.9798 17.2902 21.0263 17.454 21.038 17.6724C21.0612 17.8908 21.0729 18.1881 21.0729 18.5643C21.0729 19.0132 21.0438 19.6502 20.9856 20.4753C20.9274 21.3004 20.91 22.0223 20.9332 22.6411H21.1252C21.3579 22.1558 21.6488 21.5188 21.9979 20.7301C22.3469 19.9414 22.7134 19.2862 23.0974 18.7645C23.4814 18.2427 23.9177 17.8059 24.4064 17.454C24.895 17.09 25.4593 16.908 26.0993 16.908C26.3204 16.908 26.5356 16.9505 26.745 17.0354C26.9545 17.1082 27.1348 17.2174 27.2861 17.363C27.449 17.5086 27.577 17.6906 27.67 17.909C27.7631 18.1153 27.8097 18.3519 27.8097 18.6189C27.8097 18.8251 27.7806 19.1163 27.7224 19.4925C27.6642 19.8565 27.5711 20.3357 27.4432 20.9303C27.3152 21.5248 27.2221 22.0162 27.1639 22.4045C27.1057 22.7806 27.0766 23.0961 27.0766 23.3509C27.0766 23.7877 27.1174 24.1517 27.1988 24.4429C27.2803 24.7341 27.385 24.9707 27.513 25.1527C27.6526 25.3226 27.8038 25.4439 27.9667 25.5167C28.1413 25.5895 28.3216 25.6259 28.5078 25.6259C29.0314 25.6259 29.5724 25.5046 30.1309 25.2619C30.6894 25.0193 31.2013 24.7463 31.6667 24.4429C32.2136 24.0911 32.7488 23.6907 33.2724 23.2417L33.0106 27.5006C32.7081 27.7068 32.3649 27.9374 31.9809 28.1922C31.5969 28.447 31.1839 28.6897 30.7417 28.9202C30.3112 29.1386 29.8575 29.3267 29.3804 29.4844C28.915 29.63 28.438 29.7028 27.9493 29.7028C27.0766 29.7028 26.3727 29.5208 25.8375 29.1568C25.3023 28.7807 24.8776 28.2953 24.5634 27.7008C24.2493 27.0941 24.0166 26.4207 23.8653 25.6805C23.7141 24.9283 23.5919 24.1699 23.4988 23.4055H23.2196L20.0955 32.4874C19.9326 32.9606 19.7755 33.355 19.6243 33.6705C19.4846 33.9738 19.3392 34.2225 19.1879 34.4167C19.0367 34.6108 18.8738 34.7503 18.6993 34.8353C18.5247 34.9081 18.3328 34.9445 18.1233 34.9445C17.6463 34.9445 17.2623 34.8413 16.9714 34.6351C16.6806 34.4167 16.4537 34.1315 16.2908 33.7797C16.1395 33.4157 16.0348 33.0092 15.9766 32.5602C15.9301 32.0992 15.9068 31.626 15.9068 31.1406Z" fill="white"/>
<path d="M49.2069 30.4854C48.9393 30.8737 48.5786 31.3287 48.1248 31.8504C47.6827 32.3722 47.1823 32.8696 46.6239 33.3429C46.0654 33.8161 45.4661 34.2165 44.8262 34.5441C44.1863 34.8717 43.5463 35.0355 42.9064 35.0355C42.1385 35.0355 41.4985 34.7807 40.9866 34.2711C40.4746 33.7493 40.0325 32.997 39.6602 32.0142C39.3809 32.354 39.0377 32.6998 38.6304 33.0516C38.2232 33.4035 37.7752 33.7251 37.2866 34.0163C36.8095 34.2953 36.3092 34.5259 35.7856 34.7079C35.262 34.8899 34.7385 34.9809 34.2149 34.9809C33.6564 34.9809 33.1095 34.8656 32.5743 34.6351C32.0507 34.3924 31.5853 34.0527 31.1781 33.6159C30.7708 33.1669 30.445 32.627 30.2007 31.996C29.9564 31.353 29.8342 30.631 29.8342 29.8302C29.8342 28.9202 29.9564 27.9859 30.2007 27.0274C30.445 26.0688 30.8232 25.0314 31.3351 23.9151C31.8471 22.7988 32.3939 21.8342 32.9757 21.0213C33.5691 20.2083 34.2149 19.4985 34.913 18.8919C35.6111 18.2852 36.3441 17.8059 37.112 17.454C37.8916 17.09 38.6828 16.908 39.4856 16.908C39.7532 16.908 39.9627 16.9626 40.1139 17.0718C40.2652 17.181 40.3874 17.3084 40.4804 17.454C40.5852 17.5875 40.6841 17.721 40.7771 17.8544C40.8702 17.9879 40.9866 18.085 41.1262 18.1456C41.2658 18.2063 41.4054 18.2488 41.5451 18.273C41.6963 18.2852 41.8476 18.2912 41.9988 18.2912C42.1268 18.2912 42.2548 18.2912 42.3828 18.2912C42.5224 18.2791 42.6562 18.273 42.7842 18.273C42.9588 18.273 43.1216 18.2912 43.2729 18.3276C43.4242 18.364 43.558 18.4429 43.6743 18.5643C43.7907 18.6856 43.8779 18.8555 43.9361 19.0739C44.0059 19.2923 44.0408 19.5895 44.0408 19.9657C44.0408 20.5481 43.9827 21.1972 43.8663 21.9131C43.75 22.6168 43.622 23.3449 43.4823 24.0971C43.3427 24.8373 43.174 25.6805 42.9762 26.627C42.7784 27.5734 42.6795 28.3803 42.6795 29.0476C42.6795 29.6179 42.726 30.0668 42.8191 30.3944C42.9238 30.7099 43.1391 30.8676 43.4649 30.8676C43.7092 30.8676 43.9652 30.807 44.2328 30.6856C44.5004 30.5521 44.768 30.3823 45.0356 30.176C45.3149 29.9697 45.5883 29.7392 45.8559 29.4844C46.1352 29.2175 46.397 28.9445 46.6413 28.6654C47.2114 28.0102 47.7874 27.27 48.3691 26.445L49.2069 30.4854ZM34.3021 29.0476C34.3021 29.3509 34.3196 29.6482 34.3545 29.9394C34.401 30.2185 34.4767 30.4733 34.5814 30.7038C34.6861 30.9222 34.8257 31.1042 35.0002 31.2498C35.1748 31.3833 35.3958 31.45 35.6635 31.45C36.094 31.45 36.4837 31.2559 36.8328 30.8676C37.1819 30.4793 37.4844 30.0122 37.7403 29.4662C37.9963 28.9202 38.1999 28.356 38.3512 27.7736C38.5141 27.1912 38.6188 26.7058 38.6653 26.3176L39.9743 20.3661C39.4973 20.3661 39.0319 20.4935 38.5781 20.7483C38.1243 20.991 37.6938 21.3246 37.2866 21.7493C36.891 22.174 36.5245 22.6593 36.187 23.2053C35.8496 23.7513 35.518 24.4247 35.1922 25.2255C34.8664 26.0264 34.6337 26.7301 34.4941 27.3368C34.3661 27.9434 34.3021 28.5137 34.3021 29.0476Z" fill="white"/>
<path d="M47.8805 31.1406C47.8805 30.3398 47.927 29.4177 48.0201 28.3742C48.1132 27.3186 48.2295 26.1659 48.3691 24.9161C48.5088 23.6543 48.6658 22.5198 48.8404 21.5127C49.0149 20.5056 49.1836 19.6441 49.3465 18.9283C49.4745 18.3701 49.7188 17.903 50.0795 17.5268C50.4519 17.1507 50.9522 16.9626 51.5805 16.9626C52.2088 16.9626 52.6451 17.1628 52.8894 17.5632C53.1338 17.9636 53.2559 18.4975 53.2559 19.1649C53.2559 19.3469 53.2385 19.5956 53.2036 19.9111C53.1687 20.2144 53.1221 20.5541 53.064 20.9303C53.0174 21.2943 52.9651 21.6765 52.9069 22.0769C52.8487 22.4652 52.7905 22.9141 52.7324 23.4237C52.6858 23.9212 52.6451 24.2973 52.6102 24.5521C52.5753 24.7948 52.5578 24.9586 52.5578 25.0435H52.9069C52.9767 24.9101 53.0872 24.6977 53.2385 24.4065C53.3897 24.1032 53.5643 23.6725 53.7621 23.1143C53.9599 22.5562 54.1693 22.0648 54.3904 21.6401C54.6231 21.2033 54.8383 20.7907 55.0361 20.4025C55.2339 20.0021 55.4143 19.6502 55.5772 19.3469C55.7401 19.0435 55.8622 18.8191 55.9437 18.6735C56.316 18.0182 56.7407 17.5693 57.2177 17.3266C57.6948 17.084 58.2242 16.9626 58.806 16.9626C59.3877 16.9626 59.8473 17.2174 60.1847 17.727C60.5338 18.2366 60.7083 18.9404 60.7083 19.8383C60.7083 19.9717 60.6792 20.1962 60.6211 20.5117C60.5745 20.8271 60.5105 21.2033 60.4291 21.6401C60.3476 22.0769 60.2545 22.6411 60.1498 23.3327C60.0567 24.0243 59.9695 24.6431 59.888 25.1891C59.8066 25.7351 59.7368 26.2751 59.6786 26.809C59.6321 27.3428 59.6088 27.8342 59.6088 28.2832C59.6088 29.0355 59.6961 29.6543 59.8706 30.1396C60.0567 30.6249 60.3418 30.8676 60.7258 30.8676C60.8654 30.8676 61.0632 30.813 61.3192 30.7038C61.7031 30.5582 61.9475 30.4308 62.0522 30.3216C62.5641 29.9091 62.8317 29.7089 62.855 29.721C62.8899 29.7331 63.2797 29.4905 64.0244 28.993C64.9552 28.3742 66.0663 27.6158 67.3579 26.718L67.3404 30.7948L66.4678 31.4864C66.3979 31.5471 65.8511 31.8626 64.8272 32.4328C63.3495 33.2579 62.4245 33.7554 62.0522 33.9253C61.1446 34.3499 60.5803 34.5926 60.3593 34.6533C59.7775 34.8474 59.1666 34.9445 58.5267 34.9445C57.8868 34.9445 57.3457 34.4652 56.9036 33.5067C56.4731 32.536 56.2578 31.1224 56.2578 29.266C56.2578 28.538 56.3044 27.7554 56.3975 26.9182C56.4905 26.0688 56.6069 25.1588 56.7465 24.1881H56.4673L51.8946 33.6523C51.6503 34.1619 51.3885 34.5016 51.1092 34.6715C50.8184 34.8535 50.4809 34.9445 50.097 34.9445C49.6199 34.9445 49.236 34.8413 48.9451 34.6351C48.6542 34.4167 48.4273 34.1315 48.2644 33.7797C48.1132 33.4157 48.0084 33.0092 47.9503 32.5602C47.9037 32.0992 47.8805 31.626 47.8805 31.1406Z" fill="white"/>
<path d="M74.8102 34.8353C75.2175 37.2013 75.4211 39.0699 75.4211 40.4409C75.4211 41.8242 75.3047 42.9829 75.072 43.9172C74.8161 44.8515 74.4554 45.6462 73.99 46.3014C73.0126 47.6604 71.628 48.3399 69.8362 48.3399C68.9752 48.3399 68.2189 47.9819 67.5673 47.266C66.8459 46.4774 66.4852 45.4763 66.4852 44.263C66.4852 43.0375 66.7179 41.5208 67.1833 39.7129C67.6487 37.9172 68.0443 36.449 68.3701 35.3085C68.6959 34.1801 68.9984 33.088 69.2777 32.0324C68.9984 32.081 68.5912 32.1052 68.056 32.1052C67.5324 32.1052 66.9448 31.9232 66.2932 31.5592C65.63 31.2195 65.0657 30.7463 64.6003 30.1396C63.6229 28.8899 63.1343 27.3853 63.1343 25.6259C63.1343 24.3883 63.3902 23.1992 63.9022 22.0587C64.4141 20.9181 65.0366 19.9839 65.7696 19.2559C67.3404 17.6785 69.1322 16.8959 71.1451 16.908C72.809 16.908 74.083 17.3873 74.9673 18.3458C75.7352 19.1831 76.125 20.2933 76.1367 21.6765C76.1367 22.1618 76.0843 22.5804 75.9796 22.9323C75.8749 23.2842 75.7236 23.7756 75.5258 24.4065C75.3396 25.0375 75.1767 25.6017 75.0371 26.0992C74.9091 26.5845 74.7753 27.0759 74.6357 27.5734C74.4961 28.0587 74.3739 28.5016 74.2692 28.902C74.1645 29.2903 74.0772 29.6118 74.0074 29.8666C73.9376 30.1214 73.8969 30.2549 73.8852 30.267C73.8852 30.267 73.9085 30.3641 73.955 30.5582C74.0016 30.7402 74.0598 30.989 74.1296 31.3044C74.3506 31.4015 74.6299 31.45 74.9673 31.45C75.3164 31.45 75.7585 31.2984 76.2937 30.995C76.8406 30.6917 77.3991 30.3277 77.9692 29.903C78.5393 29.4662 79.092 29.0173 79.6272 28.5562C80.1624 28.0951 80.622 27.7008 81.006 27.3732V31.45C79.0978 33.3793 77.0326 34.5077 74.8102 34.8353ZM72.2621 20.9849C71.8898 20.5966 71.4476 20.4025 70.9357 20.4025C70.4354 20.4025 69.9409 20.5541 69.4522 20.8575C68.9752 21.1608 68.5679 21.5491 68.2305 22.0223C67.9047 22.4834 67.6255 23.084 67.3928 23.8241C67.1601 24.5521 67.0437 25.1345 67.0437 25.5713C67.0437 25.996 67.0786 26.4389 67.1484 26.9C67.2182 27.3489 67.3579 27.7736 67.5673 28.174C68.0443 29.1083 68.8006 29.6179 69.8362 29.7028C69.8245 29.63 69.8827 29.4359 70.0107 29.1204C70.1503 28.7928 70.2376 28.4106 70.2725 27.9738C70.319 27.5248 70.4354 27.1669 70.6215 26.9C70.5517 26.718 70.7437 26.0931 71.1975 25.0253C71.6629 23.9455 72.0178 22.5986 72.2621 20.9849ZM72.0701 34.3439C72.012 34.5137 71.9131 34.8353 71.7734 35.3085L71.2848 36.9647C70.1445 40.8232 69.5744 43.171 69.5744 44.0082C69.5744 44.2509 69.6326 44.4511 69.7489 44.6088C69.8653 44.7665 70.0863 44.8454 70.4121 44.8454C70.7379 44.8454 71.052 44.6998 71.3546 44.4086C71.6687 44.1417 71.9189 43.7655 72.105 43.2802C72.4541 42.3944 72.6286 41.3449 72.6286 40.1315C72.6286 37.7534 72.4425 35.8242 72.0701 34.3439Z" fill="white"/>
<path d="M93.1008 17.9818C93.1008 18.3094 93.0659 18.7584 92.9961 19.3287C92.9263 19.8868 92.8332 20.5056 92.7169 21.1851C92.6122 21.8524 92.4609 22.6593 92.2631 23.6057C92.0769 24.54 91.9257 25.3165 91.8093 25.9354C91.7046 26.5542 91.6173 27.1002 91.5475 27.5734C91.4777 28.0344 91.4428 28.356 91.4428 28.538C91.4428 28.8777 91.4486 29.1932 91.4603 29.4844C91.4719 29.7635 91.5068 30.0122 91.565 30.2306C91.6232 30.4369 91.7104 30.6007 91.8268 30.722C91.9548 30.8312 92.1351 30.8858 92.3678 30.8858C92.6238 30.8858 92.9321 30.8191 93.2928 30.6856C93.6651 30.5521 94.0549 30.3762 94.4622 30.1578C94.881 29.9273 95.3057 29.6725 95.7362 29.3934C96.1667 29.1022 96.574 28.7989 96.9579 28.4834C97.3535 28.1679 97.7084 27.8585 98.0225 27.5552C98.3483 27.2397 98.6101 26.9485 98.8079 26.6816C98.8079 27.082 98.8079 27.446 98.8079 27.7736C98.8196 28.1012 98.8254 28.4167 98.8254 28.72C98.8254 29.0112 98.8254 29.3145 98.8254 29.63C98.837 29.9455 98.8428 30.2973 98.8428 30.6856C98.5869 30.9526 98.2669 31.2377 97.8829 31.541C97.5106 31.8444 97.0917 32.1477 96.6263 32.451C96.1725 32.7544 95.6839 33.0456 95.1603 33.3246C94.6483 33.6037 94.1306 33.8525 93.607 34.0709C93.0834 34.2771 92.5656 34.447 92.0537 34.5805C91.5417 34.7018 91.0647 34.7625 90.6225 34.7625C90.1804 34.7625 89.8022 34.6715 89.4881 34.4895C89.1739 34.3075 88.9005 34.0527 88.6678 33.7251C88.4467 33.3975 88.2548 33.0092 88.0919 32.5602C87.9406 32.0992 87.8068 31.5896 87.6905 31.0314C87.2716 31.6017 86.8294 32.1295 86.364 32.6148C85.8986 33.088 85.4216 33.5006 84.9329 33.8525C84.4558 34.2043 83.9672 34.4834 83.4669 34.6897C82.9782 34.8838 82.5011 34.9809 82.0357 34.9809C81.6518 34.9809 81.2911 34.9141 80.9536 34.7807C80.6162 34.6472 80.3137 34.4227 80.0461 34.1073C79.7901 33.7918 79.5865 33.3793 79.4352 32.8696C79.284 32.3479 79.2084 31.7048 79.2084 30.9404C79.22 29.3509 79.3305 28.1315 79.54 27.2822C79.889 26.0446 80.2148 24.2003 80.5173 21.7493C80.5406 21.5673 80.5813 21.3246 80.6395 21.0213C80.7093 20.7058 80.7966 20.3661 80.9013 20.0021C81.0176 19.6381 81.1573 19.268 81.3202 18.8919C81.483 18.5157 81.675 18.176 81.8961 17.8726C82.1172 17.5693 82.3731 17.3206 82.664 17.1264C82.9665 16.9323 83.304 16.8292 83.6763 16.817C84.293 16.8413 84.7351 16.9262 85.0027 17.0718C85.2703 17.2053 85.4041 17.3752 85.4041 17.5814C85.2994 18.2245 85.1831 18.9404 85.0551 19.7291C84.9387 20.5177 84.8165 21.3125 84.6886 22.1133C84.5606 22.9141 84.4035 23.8059 84.2173 24.7887C84.0428 25.7715 83.909 26.5602 83.8159 27.1548C83.7228 27.7493 83.6472 28.2286 83.589 28.5926C83.5425 28.9566 83.5192 29.1447 83.5192 29.1568C83.5192 29.3752 83.5367 29.5875 83.5716 29.7938C83.6181 29.9879 83.6821 30.1639 83.7636 30.3216C83.845 30.4793 83.9497 30.6067 84.0777 30.7038C84.2057 30.8009 84.3569 30.8494 84.5315 30.8494C84.7875 30.8494 85.0492 30.7827 85.3169 30.6492C85.5845 30.5036 85.8346 30.2973 86.0673 30.0304C86.3117 29.7877 86.5269 29.4723 86.7131 29.084C86.8993 28.7079 87.0389 28.271 87.132 27.7736L89.0518 17.8544C89.1099 17.5632 89.3427 17.3206 89.7499 17.1264C90.1688 16.9202 90.64 16.817 91.1636 16.817C91.757 16.817 92.2282 16.9262 92.5773 17.1446C92.9263 17.363 93.1008 17.6421 93.1008 17.9818Z" fill="white"/>
<path d="M107.395 31.0678C106.976 31.4682 106.452 31.899 105.824 32.36C105.207 32.809 104.538 33.2276 103.817 33.6159C103.096 33.992 102.357 34.3075 101.6 34.5623C100.856 34.8171 100.146 34.9445 99.4711 34.9445C98.8661 34.9445 98.3541 34.8595 97.9353 34.6897C97.528 34.5077 97.1964 34.2589 96.9405 33.9435C96.6845 33.628 96.4983 33.2458 96.382 32.7968C96.2773 32.3358 96.2249 31.8322 96.2249 31.2862C96.2249 30.5218 96.3064 29.63 96.4692 28.6108C96.795 26.6452 97.0045 25.541 97.0975 25.2983C97.2604 24.7645 97.5862 23.5815 98.0749 21.7493C98.4705 20.2205 98.7148 19.2255 98.8079 18.7645C98.8661 18.4611 99.029 18.1881 99.2966 17.9454C99.5409 17.727 99.8144 17.5511 100.117 17.4176C100.431 17.272 100.751 17.1689 101.077 17.1082C101.414 17.0354 101.717 16.999 101.984 16.999C102.473 16.999 102.805 17.0961 102.979 17.2902C103.154 17.4722 103.241 17.721 103.241 18.0364C103.241 18.3034 103.183 18.6917 103.066 19.2013C102.95 19.6987 102.805 20.269 102.63 20.9121C102.456 21.543 102.235 22.3074 101.967 23.2053C101.699 24.0911 101.478 24.904 101.304 25.6441C101.129 26.3722 100.984 27.088 100.867 27.7918C100.751 28.4834 100.693 29.1083 100.693 29.6664C100.693 30.2124 100.751 30.6492 100.867 30.9768C100.984 31.2923 101.222 31.45 101.583 31.45C102.002 31.45 102.467 31.2984 102.979 30.995C103.491 30.6917 104.009 30.3277 104.532 29.903C105.056 29.4662 105.568 29.0173 106.068 28.5562C106.569 28.0951 107.011 27.7008 107.395 27.3732V31.0678ZM99.5933 11.994C99.5933 11.7149 99.6515 11.3994 99.7678 11.0475C99.8842 10.6957 100.07 10.3681 100.326 10.0647C100.594 9.74927 100.943 9.4884 101.373 9.28213C101.816 9.06372 102.362 8.95452 103.014 8.95452C103.421 8.95452 103.805 9.00306 104.166 9.10012C104.527 9.19719 104.841 9.34886 105.108 9.55513C105.376 9.74927 105.585 10.0101 105.737 10.3377C105.9 10.6653 105.981 11.0536 105.981 11.5026C105.981 11.9151 105.917 12.3155 105.789 12.7038C105.661 13.092 105.457 13.4378 105.178 13.7412C104.899 14.0445 104.544 14.2933 104.114 14.4874C103.695 14.6694 103.189 14.7604 102.595 14.7604C101.571 14.7604 100.815 14.5117 100.326 14.0142C99.8376 13.5046 99.5933 12.8312 99.5933 11.994Z" fill="white"/>
<path d="M110.065 34.9445C109.437 34.9445 108.849 34.6593 108.302 34.0891C107.767 33.5067 107.296 32.7301 106.889 31.7594C106.493 30.7887 106.179 29.6664 105.946 28.3924C105.725 27.1062 105.615 25.7594 105.615 24.3519C105.615 23.272 105.69 22.1012 105.841 20.8393C105.993 19.5653 106.214 18.2548 106.505 16.908C106.796 15.5612 107.139 14.2083 107.534 12.8494C107.942 11.4904 108.395 10.1861 108.896 8.93632C109.408 7.68657 109.96 6.52176 110.554 5.44187C111.147 4.34986 111.77 3.40345 112.421 2.60264C113.073 1.78969 113.753 1.15268 114.463 0.691609C115.173 0.230536 115.894 0 116.627 0C117.128 0 117.541 0.121335 117.866 0.364005C118.192 0.594541 118.448 0.903946 118.634 1.29222C118.821 1.68049 118.949 2.12336 119.018 2.62084C119.1 3.10618 119.141 3.60365 119.141 4.11326C119.141 5.2538 119.013 6.41862 118.757 7.6077C118.512 8.78465 118.175 9.97373 117.744 11.175C117.325 12.364 116.837 13.5592 116.278 14.7604C115.72 15.9616 115.138 17.1568 114.533 18.3458C113.928 19.5228 113.317 20.6876 112.7 21.8403C112.095 22.9808 111.525 24.0971 110.99 25.1891C110.932 25.3105 110.868 25.4682 110.798 25.6623C110.74 25.8565 110.682 26.0688 110.624 26.2994C110.565 26.5178 110.507 26.7544 110.449 27.0092C110.391 27.264 110.344 27.5127 110.309 27.7554V28.0102C110.309 28.3257 110.338 28.6351 110.397 28.9384C110.466 29.2296 110.548 29.4965 110.641 29.7392C110.734 29.9697 110.833 30.1578 110.938 30.3034C111.042 30.4369 111.141 30.5036 111.234 30.5036C111.455 30.5036 111.706 30.4551 111.985 30.358C112.276 30.2609 112.578 30.1335 112.892 29.9758C113.218 29.8059 113.55 29.6179 113.887 29.4116C114.225 29.1932 114.55 28.9748 114.865 28.7564C115.598 28.2468 116.366 27.6583 117.168 26.991L118.599 30.813C117.564 31.5896 116.54 32.2812 115.528 32.8878C115.086 33.1427 114.626 33.3975 114.149 33.6523C113.684 33.8949 113.212 34.1133 112.735 34.3075C112.258 34.5016 111.793 34.6593 111.339 34.7807C110.885 34.8899 110.461 34.9445 110.065 34.9445ZM110.082 20.3843C110.606 19.4136 111.159 18.3216 111.741 17.1082C112.334 15.8949 112.892 14.6451 113.416 13.359C113.94 12.0728 114.393 10.7927 114.777 9.51873C115.161 8.23258 115.406 7.03743 115.51 5.93328C115.51 5.58141 115.499 5.28414 115.475 5.04147C115.464 4.78666 115.411 4.65926 115.318 4.65926C114.981 4.65926 114.614 4.8898 114.219 5.35087C113.835 5.79981 113.445 6.41255 113.049 7.1891C112.666 7.96564 112.293 8.86959 111.932 9.90093C111.583 10.9323 111.269 12.0304 110.99 13.1952C110.711 14.36 110.49 15.5612 110.327 16.7988C110.164 18.0243 110.082 19.2195 110.082 20.3843Z" fill="white"/>
<path d="M126.174 31.0678C125.755 31.4682 125.232 31.899 124.603 32.36C123.987 32.809 123.318 33.2276 122.596 33.6159C121.875 33.992 121.136 34.3075 120.38 34.5623C119.635 34.8171 118.925 34.9445 118.25 34.9445C117.645 34.9445 117.133 34.8595 116.715 34.6897C116.307 34.5077 115.976 34.2589 115.72 33.9435C115.464 33.628 115.278 33.2458 115.161 32.7968C115.057 32.3358 115.004 31.8322 115.004 31.2862C115.004 30.5218 115.086 29.63 115.249 28.6108C115.574 26.6452 115.784 25.541 115.877 25.2983C116.04 24.7645 116.366 23.5815 116.854 21.7493C117.25 20.2205 117.494 19.2255 117.587 18.7645C117.645 18.4611 117.808 18.1881 118.076 17.9454C118.32 17.727 118.594 17.5511 118.896 17.4176C119.21 17.272 119.53 17.1689 119.856 17.1082C120.194 17.0354 120.496 16.999 120.764 16.999C121.252 16.999 121.584 17.0961 121.758 17.2902C121.933 17.4722 122.02 17.721 122.02 18.0364C122.02 18.3034 121.962 18.6917 121.846 19.2013C121.729 19.6987 121.584 20.269 121.409 20.9121C121.235 21.543 121.014 22.3074 120.746 23.2053C120.479 24.0911 120.257 24.904 120.083 25.6441C119.908 26.3722 119.763 27.088 119.647 27.7918C119.53 28.4834 119.472 29.1083 119.472 29.6664C119.472 30.2124 119.53 30.6492 119.647 30.9768C119.763 31.2923 120.002 31.45 120.362 31.45C120.781 31.45 121.246 31.2984 121.758 30.995C122.27 30.6917 122.788 30.3277 123.312 29.903C123.835 29.4662 124.347 29.0173 124.848 28.5562C125.348 28.0951 125.79 27.7008 126.174 27.3732V31.0678ZM118.373 11.994C118.373 11.7149 118.431 11.3994 118.547 11.0475C118.663 10.6957 118.85 10.3681 119.106 10.0647C119.373 9.74927 119.722 9.4884 120.153 9.28213C120.595 9.06372 121.142 8.95452 121.793 8.95452C122.201 8.95452 122.585 9.00306 122.945 9.10012C123.306 9.19719 123.62 9.34886 123.888 9.55513C124.155 9.74927 124.365 10.0101 124.516 10.3377C124.679 10.6653 124.76 11.0536 124.76 11.5026C124.76 11.9151 124.696 12.3155 124.568 12.7038C124.44 13.092 124.237 13.4378 123.958 13.7412C123.678 14.0445 123.323 14.2933 122.893 14.4874C122.474 14.6694 121.968 14.7604 121.374 14.7604C120.351 14.7604 119.594 14.5117 119.106 14.0142C118.617 13.5046 118.373 12.8312 118.373 11.994Z" fill="white"/>
<path d="M123.19 31.541C123.19 31.2741 123.236 31.0557 123.329 30.8858C123.422 30.7038 123.544 30.5339 123.696 30.3762C123.847 30.2185 124.021 30.0607 124.219 29.903C124.417 29.7331 124.621 29.5269 124.83 29.2842L130.433 21.3125C130.223 21.2154 130.043 21.1244 129.891 21.0395C129.74 20.9545 129.601 20.8818 129.473 20.8211C129.356 20.7483 129.234 20.6937 129.106 20.6573C128.978 20.6209 128.838 20.6027 128.687 20.6027C128.315 20.6027 128.007 20.6087 127.762 20.6209C127.518 20.633 127.308 20.6755 127.134 20.7483C126.971 20.8211 126.82 20.9303 126.68 21.0759C126.552 21.2215 126.407 21.4278 126.244 21.6947C125.883 22.2771 125.581 22.7078 125.336 22.9869C125.092 23.2538 124.871 23.3873 124.673 23.3873C124.487 23.3873 124.353 23.3024 124.272 23.1325C124.202 22.9505 124.167 22.7139 124.167 22.4227C124.167 22.3014 124.173 22.174 124.184 22.0405C124.196 21.8949 124.213 21.7493 124.237 21.6037C124.411 20.5481 124.661 19.6927 124.987 19.0375C125.313 18.3822 125.674 17.8787 126.069 17.5268C126.477 17.1628 126.895 16.9202 127.326 16.7988C127.768 16.6654 128.175 16.5986 128.548 16.5986C128.827 16.5986 129.106 16.6714 129.385 16.817C129.665 16.9505 129.938 17.1022 130.206 17.272C130.485 17.4419 130.764 17.5996 131.043 17.7452C131.334 17.8787 131.631 17.9515 131.933 17.9636C132.166 17.9758 132.376 17.9818 132.562 17.9818C132.76 17.9818 132.94 17.9818 133.103 17.9818C133.568 17.9818 133.941 17.9758 134.22 17.9636C134.499 17.9394 134.708 17.9151 134.848 17.8908C134.999 17.8666 135.104 17.8484 135.162 17.8362C135.22 17.812 135.267 17.7998 135.302 17.7998C135.709 17.7998 136 17.9515 136.175 18.2548C136.361 18.5461 136.454 18.9465 136.454 19.4561C136.454 19.8686 136.419 20.2205 136.349 20.5117C136.326 20.6087 136.209 20.7361 136 20.8939C135.791 21.0395 135.441 21.179 134.953 21.3125C134.813 21.5794 134.58 21.9556 134.255 22.4409C133.929 22.9262 133.551 23.4662 133.12 24.0607C132.701 24.6553 132.23 25.3287 131.707 26.081C131.195 26.8332 130.729 27.4884 130.31 28.0466C129.903 28.5926 129.542 29.0719 129.228 29.4844C128.926 29.8848 128.722 30.1578 128.617 30.3034L128.53 30.6674C128.542 30.6674 128.647 30.7099 128.844 30.7948C129.042 30.8798 129.275 30.9768 129.542 31.086C129.81 31.1831 130.089 31.2741 130.38 31.359C130.683 31.444 130.944 31.4864 131.166 31.4864C131.654 31.4864 132.096 31.4136 132.492 31.268C132.899 31.1103 133.272 30.9162 133.609 30.6856C133.958 30.4551 134.278 30.2124 134.569 29.9576C134.871 29.6907 135.156 29.4419 135.424 29.2114C135.703 28.9809 135.977 28.7928 136.244 28.6472C136.512 28.4895 136.791 28.4106 137.082 28.4106C137.303 28.4106 137.501 28.4652 137.675 28.5744C137.862 28.6836 138.013 28.8231 138.129 28.993C138.257 29.1629 138.35 29.357 138.408 29.5754C138.478 29.7817 138.513 29.9879 138.513 30.1942C138.513 30.5461 138.385 30.9162 138.129 31.3044C137.873 31.6806 137.53 32.0506 137.1 32.4146C136.669 32.7786 136.169 33.1245 135.599 33.4521C135.028 33.7797 134.429 34.0709 133.801 34.3257C133.184 34.5683 132.55 34.7625 131.899 34.9081C131.259 35.0537 130.654 35.1265 130.083 35.1265C130.037 35.1265 129.915 35.1022 129.717 35.0537C129.519 35.0051 129.257 34.9263 128.932 34.8171C128.606 34.6957 128.228 34.5441 127.797 34.3621C127.367 34.1801 126.895 33.9495 126.383 33.6705C125.941 33.8161 125.557 33.8889 125.232 33.8889C124.883 33.8889 124.58 33.8282 124.324 33.7069C124.068 33.5734 123.853 33.3975 123.678 33.1791C123.515 32.9606 123.393 32.7119 123.312 32.4328C123.23 32.1538 123.19 31.8565 123.19 31.541Z" fill="white"/>
<path d="M142.126 34.9445C141.032 34.9445 140.072 34.7382 139.246 34.3257C138.432 33.9131 137.751 33.3611 137.204 32.6694C136.657 31.9657 136.244 31.1588 135.965 30.2488C135.697 29.3267 135.564 28.3621 135.564 27.355C135.564 26.6755 135.686 25.8686 135.93 24.9343C136.175 23.9879 136.425 23.1507 136.681 22.4227C136.948 21.6947 137.28 21.0031 137.675 20.3479C138.071 19.6805 138.531 19.0981 139.054 18.6007C139.589 18.091 140.183 17.6906 140.834 17.3994C141.498 17.0961 142.231 16.9444 143.033 16.9444C143.685 16.9444 144.29 17.0536 144.849 17.272C145.407 17.4904 145.89 17.7998 146.297 18.2002C146.716 18.5885 147.042 19.0617 147.275 19.6199C147.507 20.178 147.624 20.8029 147.624 21.4945C147.624 22.2468 147.385 23.09 146.908 24.0243C146.443 24.9586 145.896 25.7594 145.267 26.4268C144.639 27.0941 143.889 27.6886 143.016 28.2104C142.155 28.7321 141.218 29.1386 140.206 29.4298C140.381 29.7574 140.549 30.0304 140.712 30.2488C140.887 30.4672 141.061 30.6371 141.236 30.7584C141.41 30.8798 141.591 30.9647 141.777 31.0132C141.975 31.0618 142.184 31.086 142.405 31.086C143.103 31.086 143.836 30.9404 144.604 30.6492C145.384 30.358 146.14 29.994 146.873 29.5572C147.606 29.1204 148.298 28.6472 148.95 28.1376C149.602 27.6158 150.154 27.1244 150.608 26.6634L152.859 29.1022C151.836 30.2063 150.748 31.1831 149.596 32.0324C149.095 32.3964 148.554 32.7544 147.973 33.1062C147.403 33.4581 146.797 33.7736 146.158 34.0527C145.529 34.3196 144.872 34.538 144.185 34.7079C143.511 34.8656 142.824 34.9445 142.126 34.9445ZM139.805 26.3904C140.224 26.3904 140.677 26.2812 141.166 26.0628C141.666 25.8322 142.126 25.541 142.545 25.1891C142.975 24.8373 143.394 24.3641 143.801 23.7695C144.209 23.175 144.412 22.6836 144.412 22.2953C144.412 21.7493 144.313 21.3004 144.116 20.9485C143.929 20.5966 143.697 20.4207 143.417 20.4207C142.917 20.4207 142.487 20.5177 142.126 20.7119C141.777 20.906 141.48 21.1608 141.236 21.4763C141.003 21.7796 140.811 22.1315 140.66 22.5319C140.52 22.9202 140.352 23.4055 140.154 23.9879C139.968 24.5703 139.863 25.0496 139.84 25.4257C139.816 25.8019 139.805 26.1234 139.805 26.3904Z" fill="white"/>
<path d="M158.04 23.0375C156.289 23.0375 153.032 22.4959 151.045 18.8318C150.416 17.6719 149.899 16.6936 149.466 15.8733C148.433 13.9164 147.864 12.8383 147.4 12.3997C147.319 12.3228 147.289 12.2038 147.323 12.0956C147.357 11.9874 147.449 11.9098 147.558 11.8964C148.769 11.7541 150.214 12.1446 151.674 13.0024C151.642 12.1843 151.68 11.3063 151.787 10.385C151.796 10.3062 151.836 10.2351 151.897 10.1876C151.958 10.1402 152.036 10.1207 152.111 10.133C154.175 10.4775 155.718 11.6551 156.7 13.6326L156.199 13.8976C155.351 12.1882 154.044 11.1346 152.312 10.7624C152.214 11.743 152.199 12.667 152.267 13.5125C152.276 13.6227 152.224 13.7282 152.133 13.7852C152.041 13.8422 151.927 13.8414 151.837 13.7822C150.577 12.9572 149.28 12.4891 148.187 12.4524C148.618 13.0551 149.134 14.0326 149.96 15.5957C150.392 16.4145 150.908 17.3908 151.536 18.5484C154.143 23.3576 159.081 22.3831 159.131 22.3732L159.243 22.9426C159.227 22.9453 158.761 23.0375 158.04 23.0375Z" fill="white"/>
<path d="M159.187 22.948C159.171 22.948 159.156 22.9469 159.14 22.9438C159.07 22.9316 157.417 22.6161 156.545 20.1635C156.342 19.5979 156.196 18.9497 156.111 18.2376C155.954 16.9125 155.853 15.4473 156.173 13.7103C156.516 11.846 157.287 9.94564 158.53 7.90153C158.579 7.82122 158.663 7.77073 158.754 7.76615C158.845 7.75964 158.934 7.80286 158.99 7.8782C160.168 9.44542 161.051 11.101 161.614 12.7994C162.467 15.3567 162.361 17.3029 162.275 18.0211C162.275 18.0227 162.275 18.0242 162.275 18.0257L162.268 18.077C162.257 18.1565 162.247 18.2315 162.235 18.3003C162.215 18.4254 162.19 18.5539 162.16 18.6778C161.917 19.7448 161.381 20.7938 160.61 21.7055C159.958 22.4731 159.368 22.8823 159.343 22.8991C159.297 22.9312 159.242 22.948 159.187 22.948ZM158.793 8.56964C157.713 10.4145 157.035 12.1355 156.726 13.8189C156.405 15.5602 156.529 16.9763 156.67 18.1665C156.75 18.8338 156.885 19.4381 157.073 19.9624C157.714 21.7633 158.786 22.2348 159.129 22.3426C159.314 22.2004 159.737 21.8524 160.187 21.3227C160.682 20.7368 161.332 19.7784 161.613 18.5393C161.641 18.4254 161.663 18.3133 161.681 18.1986C161.693 18.1324 161.702 18.067 161.711 17.9978L161.718 17.9477C161.798 17.2681 161.896 15.4286 161.082 12.9875C160.579 11.4704 159.81 9.9858 158.793 8.56964Z" fill="white"/>
<path d="M156.144 18.6051C155.118 16.6371 153.589 14.9245 151.838 13.7822L152.139 13.2908C153.97 14.4859 155.569 16.2753 156.639 18.3297L156.144 18.6051Z" fill="white"/>
<path d="M160.314 23.0241C159.937 23.0241 159.55 22.9989 159.151 22.9454L159.223 22.369C163.043 22.8819 165.828 20.6255 167.053 18.5389C167.78 17.2999 168.32 16.2176 168.892 15.0722C169.288 14.2782 169.695 13.4617 170.191 12.537C168.614 12.8265 167.156 13.412 165.851 14.2805C163.387 15.9158 162.291 18.0315 162.245 18.1209L161.747 17.8502C161.868 17.6127 163.003 15.4798 165.546 13.7918C167.076 12.7737 168.804 12.1274 170.682 11.8708C170.789 11.8559 170.893 11.9048 170.953 11.9966C171.012 12.088 171.017 12.2066 170.964 12.3026C170.34 13.4376 169.858 14.4041 169.391 15.3391C168.815 16.4937 168.271 17.5844 167.534 18.8411C166.35 20.8584 163.804 23.0238 160.314 23.0241Z" fill="white"/>
<path d="M165.97 14.1101L165.426 13.9629C165.744 12.7062 165.82 11.2189 165.651 9.53772C163.806 9.93545 162.445 11.1034 161.603 13.0137L161.091 12.7731C162.059 10.5756 163.661 9.27537 165.852 8.90823C165.928 8.89599 166.005 8.9155 166.067 8.96292C166.128 9.01034 166.168 9.08186 166.177 9.16025C166.395 11.0411 166.326 12.7062 165.97 14.1101Z" fill="white"/>
<path fill-rule="evenodd" clip-rule="evenodd" d="M154.847 22.7787C153.398 24.1104 151.615 25.6895 149.34 27.6654C147.767 29.0317 146.273 29.8669 145.402 30.3539C144.776 30.7037 144.472 30.8739 144.69 30.9324L151.167 30.3729C151.23 30.6678 152.061 30.3205 154.885 26.5726C155.871 25.2631 156.707 23.9676 157.396 22.7787H154.847Z" fill="white"/>
</svg>
